<svg id="Layer_1" data-name="Layer 1" xmlns="http://www.w3.org/2000/svg" viewBox="0 0 1200.991 294.284"><defs><style>.cls-1{fill:none;stroke:#000;stroke-linecap:round;stroke-linejoin:round;stroke-width:4px;}</style></defs><title>ico</title><path class="cls-1" d="M226.943,297.081H14.012a7.166,7.166,0,0,1-7.225-7.225V171.278a7.165,7.165,0,0,1,7.225-7.225H226.943a7.166,7.166,0,0,1,7.225,7.225V289.643A7.348,7.348,0,0,1,226.943,297.081Z" transform="translate(-4.787 -4.798)"/><path class="cls-1" d="M76.061,26.561V13.385A6.621,6.621,0,0,1,82.649,6.8h100.94a6.621,6.621,0,0,1,6.588,6.588V157.252a6.621,6.621,0,0,1-6.588,6.588h-15.3" transform="translate(-4.787 -4.798)"/><path class="cls-1" d="M56.938,46.961V33.149a6.621,6.621,0,0,1,6.588-6.588h100.94a6.621,6.621,0,0,1,6.588,6.588V157.464a6.621,6.621,0,0,1-6.588,6.588H150.653" transform="translate(-4.787 -4.798)"/><path class="cls-1" d="M152.78,54.186v102.64a7.166,7.166,0,0,1-7.225,7.225H45.678a7.166,7.166,0,0,1-7.225-7.225V54.186a7.166,7.166,0,0,1,7.225-7.225h99.878A7.166,7.166,0,0,1,152.78,54.186Z" transform="translate(-4.787 -4.798)"/><path class="cls-1" d="M159.577,244.59h-78.2a13.6,13.6,0,1,1,0-27.2h78.2A13.6,13.6,0,1,1,159.577,244.59Z" transform="translate(-4.787 -4.798)"/><path class="cls-1" d="M65.436,75.225h55.039" transform="translate(-4.787 -4.798)"/><path class="cls-1" d="M65.436,101.151h55.039" transform="translate(-4.787 -4.798)"/><path class="cls-1" d="M65.436,127.076h55.039" transform="translate(-4.787 -4.798)"/><path d="M1204.015,230.39c-3.856-5.939-9.074-8.68-15.88-8.223h-0.454c-4.991,1.6-10.435,3.2-16.107,5.025-24.954,7.994-50.589,15.989-76.451,15.989-29.945,0-47.867-6.167-62.386-12.563q-4.083-1.713-7.486-3.426c-10.662-5.025-19.736-9.365-31.76-9.365h-0.227c-7.486.914-14.973,2.056-22.459,3.2l-5.445.914a1.524,1.524,0,0,0-1.361,1.6,1.741,1.741,0,0,0,2.042,1.827c2.949-.457,6.125-0.914,9.074-1.37h0.227c6.125-.914,12.25-1.827,18.149-2.512h0.227c11.116,0.228,19.51,4.111,29.945,8.908l7.486,3.426c12.7,5.71,29.038,11.649,54.672,12.791h0.227c7.94,1.828,14.065,5.255,16.788,9.823a12.391,12.391,0,0,1,1.361,9.821l-0.227.457c-1.815,2.283-5.9,5.71-14.065,5.71h-0.227l-68.284-7.765a1.717,1.717,0,0,0-.227,3.427l68.511,7.765h0.227c6.806-.23,12.7-2.513,16.334-6.624,0-.23.227-0.23,0.227-0.457,4.991-8.909-1.361-15.76-5.445-19.187l-3.176-2.74,4.537-.23c24.5-1.371,49-9.136,70.552-15.988,5.445-1.827,10.662-3.426,15.88-5.025h0.454c5.9,0.228,9.755,2.284,12.023,6.624,2.5,3.883,2.042,7.994-1.134,11.42l-0.227.229-3.176,2.056c-22.912,14.389-76.451,48.194-129.309,48.422h-0.227c-14.746-2.056-29.038-6.167-42.649-10.278-7.033-2.056-13.611-4.111-19.964-5.71-14.292-3.427-26.315-3.884-39.246-1.6A1.987,1.987,0,0,0,964,278.583v1.828a79.244,79.244,0,0,1,16.334-1.6,96.329,96.329,0,0,1,23.366,3.2c8.621,2.056,16.787,4.568,24.727,7.081,13.838,4.341,26.769,8.222,38.339,8.909,54.446,0,108.211-34.035,131.123-48.651l0.227-.23c1.361-.914,2.5-1.6,3.63-2.283,0.227,0,.227-0.23.454-0.23A14.117,14.117,0,0,0,1204.015,230.39Z" transform="translate(-4.787 -4.798)"/><path class="cls-1" d="M1091.835,208.194c55.143,0,99.845-44.93,99.845-100.353s-44.7-100.353-99.845-100.353S991.99,52.417,991.99,107.841,1036.692,208.194,1091.835,208.194Z" transform="translate(-4.787 -4.798)"/><path class="cls-1" d="M1091.839,7.487V208.193" transform="translate(-4.787 -4.798)"/><path class="cls-1" d="M1091.833,207.258c27.893,0,50.5-44.72,50.5-99.885s-22.612-99.885-50.5-99.885-50.5,44.72-50.5,99.885S1063.941,207.258,1091.833,207.258Z" transform="translate(-4.787 -4.798)"/><path class="cls-1" d="M1002.579,64.815h179.527" transform="translate(-4.787 -4.798)"/><path class="cls-1" d="M1001.3,150.18h180.838" transform="translate(-4.787 -4.798)"/><path class="cls-1" d="M991.99,107.841h199.69" transform="translate(-4.787 -4.798)"/><path class="cls-1" d="M333.567,128.643l5.022,0.387a4.488,4.488,0,0,0,4.635-4.258l0.579-6.58a4.488,4.488,0,0,1,4.635-4.257l3.863,0.387" transform="translate(-4.787 -4.798)"/><path class="cls-1" d="M470.7,149.931a14.321,14.321,0,1,0,14.293,14.321A14.275,14.275,0,0,0,470.7,149.931Z" transform="translate(-4.787 -4.798)"/><path class="cls-1" d="M496.972,176.444c-8.691,18.385-17.576,36.577-26.267,54.768-8.5-18.385-17.962-36.383-26.267-54.768a46.645,46.645,0,0,1-2.318-12.579c0-16.256,12.554-28.255,28.585-28.255s28.778,12,28.778,28.255A46.927,46.927,0,0,1,496.972,176.444Z" transform="translate(-4.787 -4.798)"/><path class="cls-1" d="M542.739,224.439H495.034" transform="translate(-4.787 -4.798)"/><path class="cls-1" d="M445.207,224.439H428.79c-8.305,0-15.451,3.29-16.8,7.935L400.978,271.66c-1.545,5.612,6.374,10.837,16.8,10.837H597.21c10.429,0,18.347-5.032,16.8-10.837l-10.624-39.286c-1.158-4.645-8.3-7.935-16.8-7.935H542.744" transform="translate(-4.787 -4.798)"/><path class="cls-1" d="M411.215,235.471L453.706,282.5" transform="translate(-4.787 -4.798)"/><path class="cls-1" d="M503.727,282.5l-27.619-38.124" transform="translate(-4.787 -4.798)"/><path class="cls-1" d="M572.1,282.5l-32.641-44.9" transform="translate(-4.787 -4.798)"/><path class="cls-1" d="M558.193,263.532H511.839" transform="translate(-4.787 -4.798)"/><path class="cls-1" d="M433.229,256.374l23.95-19.548" transform="translate(-4.787 -4.798)"/><path class="cls-1" d="M514.156,244.373H476.108" transform="translate(-4.787 -4.798)"/><path class="cls-1" d="M603.776,237.6H568.044" transform="translate(-4.787 -4.798)"/><path class="cls-1" d="M607.446,251.146H583.3" transform="translate(-4.787 -4.798)"/><path d="M539.651,114.516c-24.529,0-49.831-6.967-49.831-18.772V33.428c0-11.805,25.495-18.772,49.831-18.772,24.53,0,49.83,6.967,49.83,18.772V95.744C589.675,107.549,564.181,114.516,539.651,114.516Zm-46.74-18.772c0,8.515,21.439,15.676,46.74,15.676s46.74-7.161,46.74-15.676V82l-2.124,1.548c-8.3,6.193-25.687,10.257-44.809,10.257-18.928,0-36.5-4.064-44.809-10.257L492.525,82v13.74h0.386Zm0-20.9c0,8.515,21.439,15.676,46.74,15.676s46.74-7.16,46.74-15.676V61.1l-2.124,1.548c-8.3,6.193-25.687,10.257-44.809,10.257-18.928,0-36.5-4.064-44.809-10.257L492.525,61.1v13.74h0.386Zm0-20.708c0,8.515,21.439,15.676,46.74,15.676s46.74-7.161,46.74-15.676V40.4l-2.124,1.548c-8.3,6.193-25.687,10.257-44.809,10.257s-36.5-4.064-44.809-10.257L492.525,40.4v13.74h0.386Zm46.74-36.383c-25.3,0-46.74,7.161-46.74,15.676S514.35,49.1,539.651,49.1s46.74-7.161,46.74-15.676S565.145,17.753,539.651,17.753Z" transform="translate(-4.787 -4.798)"/><path d="M539.651,14.849c24.336,0,49.637,6.967,49.637,18.579V95.744c0,11.612-25.3,18.579-49.637,18.579s-49.637-6.967-49.637-18.579V33.428C490.208,21.816,515.316,14.849,539.651,14.849Zm0,34.448c25.5,0,46.933-7.354,46.933-16.063s-21.437-16.063-46.933-16.063c-25.494.194-46.933,7.548-46.933,16.256S514.157,49.3,539.651,49.3Zm0,20.9c25.5,0,46.933-7.354,46.933-16.063V39.814l-2.511,1.935c-8.111,6.193-25.687,10.257-44.616,10.257s-36.31-4.064-44.615-10.257l-2.511-1.935V54.135C492.718,62.844,514.157,70.2,539.651,70.2Zm0,20.707c25.5,0,46.933-7.354,46.933-16.063V60.522l-2.511,1.935c-8.111,6.193-25.687,10.257-44.616,10.257s-36.31-4.064-44.615-10.257l-2.511-1.935V74.843C492.718,83.551,514.157,90.905,539.651,90.905Zm0,20.708c25.5,0,46.933-7.354,46.933-16.063V81.229l-2.511,1.935c-8.111,6.193-25.687,10.257-44.616,10.257s-36.31-4.064-44.615-10.257l-2.511-1.935V95.55C492.718,104.259,514.157,111.613,539.651,111.613Zm0-97.344c-24.529,0-50.023,7.161-50.216,18.966V95.55c0,12,25.495,19.159,50.216,19.159s50.217-7.161,50.217-19.159V33.428C589.675,21.429,564.374,14.268,539.651,14.268Zm0,34.641c-24.722,0-46.547-7.161-46.547-15.482s21.825-15.482,46.547-15.482S586.2,25.106,586.2,33.428,564.567,48.91,539.651,48.91Zm0,20.707c-24.722,0-46.547-7.161-46.547-15.482V40.782l1.738,1.355c8.305,6.386,25.881,10.451,44.808,10.451s36.7-4.064,44.809-10.451l1.737-1.355V54.135C586.2,62.457,564.567,69.617,539.651,69.617Zm0,20.708c-24.722,0-46.547-7.161-46.547-15.482V61.489l1.738,1.355c8.305,6.386,25.881,10.451,44.808,10.451s36.7-4.064,44.809-10.451l1.737-1.355V74.843C586.2,83.164,564.567,90.325,539.651,90.325Zm0,20.9c-24.722,0-46.547-7.16-46.547-15.482V82.39l1.738,1.355c8.305,6.387,25.881,10.451,44.808,10.451s36.7-4.064,44.809-10.451L586.2,82.39V95.744C586.2,103.872,564.567,111.226,539.651,111.226Z" transform="translate(-4.787 -4.798)"/><path class="cls-1" d="M454.666,47.942H343.03" transform="translate(-4.787 -4.798)"/><path class="cls-1" d="M343.03,71.359V47.942" transform="translate(-4.787 -4.798)"/><path class="cls-1" d="M343.03,169.866v92.7" transform="translate(-4.787 -4.798)"/><path class="cls-1" d="M365.049,262.563H343.03" transform="translate(-4.787 -4.798)"/><path class="cls-1" d="M343.033,141.61a20.127,20.127,0,1,0-20.087-20.127A20.107,20.107,0,0,0,343.033,141.61Z" transform="translate(-4.787 -4.798)"/><path class="cls-1" d="M465.683,269.337H442.119" transform="translate(-4.787 -4.798)"/><path class="cls-1" d="M454.67,47.942V36.137l10.043,5.806,10.237,6-10.237,5.806L454.67,59.554V47.942Z" transform="translate(-4.787 -4.798)"/><path class="cls-1" d="M365.829,262.565V250.76l10.043,6,10.043,5.807-10.043,5.8-10.043,5.805v-11.61Z" transform="translate(-4.787 -4.798)"/><path class="cls-1" d="M343.035,71.359h11.588l-5.794,10.063-5.794,10.064-5.794-10.064-5.794-10.063h11.589Z" transform="translate(-4.787 -4.798)"/><path class="cls-1" d="M343.035,169.865H331.447l5.794-10.257,5.794-10.064,5.794,10.064,5.794,10.257H343.035Z" transform="translate(-4.787 -4.798)"/><path class="cls-1" d="M556.649,158.834h11.4l-9.658-16.643-9.655-16.837-9.658,16.837-9.657,16.643H541v22.643H529.417l9.657,16.837,9.658,16.837,9.655-16.837,9.658-16.837h-11.4V158.834Z" transform="translate(-4.787 -4.798)"/><path class="cls-1" d="M694.948,69.543a11.276,11.276,0,1,0,11.266,11.276A11.283,11.283,0,0,0,694.948,69.543Z" transform="translate(-4.787 -4.798)"/><path class="cls-1" d="M715.82,90.6c-6.958,14.592-13.917,29.185-21.041,43.611-6.793-14.592-14.414-29.019-21.041-43.611a40.445,40.445,0,0,1-1.822-10.115,22.531,22.531,0,0,1,22.864-22.552c12.757,0,22.864,9.618,22.864,22.552A29.56,29.56,0,0,1,715.82,90.6Z" transform="translate(-4.787 -4.798)"/><path class="cls-1" d="M797.5,156.433V84.466a8.135,8.135,0,0,1,8.118-8.125h14.911a8.135,8.135,0,0,1,8.118,8.125v71.967" transform="translate(-4.787 -4.798)"/><path class="cls-1" d="M845.717,156.434V117.465a8.135,8.135,0,0,1,8.12-8.125h14.91a8.135,8.135,0,0,1,8.118,8.125v38.968" transform="translate(-4.787 -4.798)"/><path class="cls-1" d="M893.1,156.433V138.027a8.135,8.135,0,0,1,8.12-8.125h14.911a8.134,8.134,0,0,1,8.118,8.125V156.6" transform="translate(-4.787 -4.798)"/><path class="cls-1" d="M938,281.463H788.888a8.134,8.134,0,0,1-8.118-8.125V196.231" transform="translate(-4.787 -4.798)"/><path class="cls-1" d="M938,157.595H788.888a8.135,8.135,0,0,1-8.118-8.125V72.2" transform="translate(-4.787 -4.798)"/><path class="cls-1" d="M780.77,250.954l17.894-15.422a8.113,8.113,0,0,1,11.432.829l11.763,13.929a7.969,7.969,0,0,0,11.433.829l35.123-30.014a8.115,8.115,0,0,1,11.433.829l11.763,13.929a7.966,7.966,0,0,0,11.431.829l30.155-25.7" transform="translate(-4.787 -4.798)"/><path class="cls-1" d="M698.925,281.8a42.948,42.948,0,1,0-42.911-42.947A42.929,42.929,0,0,0,698.925,281.8Z" transform="translate(-4.787 -4.798)"/><path class="cls-1" d="M698.921,195.9v42.949" transform="translate(-4.787 -4.798)"/><path class="cls-1" d="M698.921,238.848l30.154,30.511" transform="translate(-4.787 -4.798)"/><path class="cls-1" d="M698.8,238.327l-31.514,29.341" transform="translate(-4.787 -4.798)"/><path class="cls-1" d="M675.891,108.843H659.986a7.625,7.625,0,0,0-7.456,6.3l-4.639,31.34a7.543,7.543,0,0,0,7.456,8.623h79.029a7.543,7.543,0,0,0,7.456-8.623l-4.639-31.175a7.372,7.372,0,0,0-7.456-6.3H715.655" transform="translate(-4.787 -4.798)"/><path class="cls-1" d="M655.183,110.832l34.793,44.275" transform="translate(-4.787 -4.798)"/><path class="cls-1" d="M729.738,155.107L707.7,124.762" transform="translate(-4.787 -4.798)"/><path class="cls-1" d="M740.67,139.852H718.8" transform="translate(-4.787 -4.798)"/><path class="cls-1" d="M673.57,134.214l9.941-8.125" transform="translate(-4.787 -4.798)"/><path class="cls-1" d="M738.022,124.762H707.7" transform="translate(-4.787 -4.798)"/></svg>