<svg id="Layer_1" data-name="Layer 1" xmlns="http://www.w3.org/2000/svg" viewBox="0 0 300 300"><defs><style>.cls-1{fill:none;stroke:#000;stroke-linecap:round;stroke-linejoin:round;stroke-width:4px;}</style></defs><title>ico</title><path class="cls-1" d="M226.943,297.081H14.012a7.166,7.166,0,0,1-7.225-7.225V171.278a7.165,7.165,0,0,1,7.225-7.225H226.943a7.166,7.166,0,0,1,7.225,7.225V289.643A7.348,7.348,0,0,1,226.943,297.081Z"/><path class="cls-1" d="M76.061,26.561V13.385A6.621,6.621,0,0,1,82.649,6.8h100.94a6.621,6.621,0,0,1,6.588,6.588V157.252a6.621,6.621,0,0,1-6.588,6.588h-15.3"/><path class="cls-1" d="M56.938,46.961V33.149a6.621,6.621,0,0,1,6.588-6.588h100.94a6.621,6.621,0,0,1,6.588,6.588V157.464a6.621,6.621,0,0,1-6.588,6.588H150.653"/><path class="cls-1" d="M152.78,54.186v102.64a7.166,7.166,0,0,1-7.225,7.225H45.678a7.166,7.166,0,0,1-7.225-7.225V54.186a7.166,7.166,0,0,1,7.225-7.225h99.878A7.166,7.166,0,0,1,152.78,54.186Z"/><path class="cls-1" d="M159.577,244.59h-78.2a13.6,13.6,0,1,1,0-27.2h78.2A13.6,13.6,0,1,1,159.577,244.59Z"/><path class="cls-1" d="M65.436,75.225h55.039"/><path class="cls-1" d="M65.436,101.151h55.039"/><path class="cls-1" d="M65.436,127.076h55.039"/></svg>