<svg id="Layer_1" data-name="Layer 1" xmlns="http://www.w3.org/2000/svg" viewBox="0 0 300 300"><defs><style>.cls-1{fill:none;stroke:#000;stroke-linecap:round;stroke-linejoin:round;stroke-width:4px;}</style></defs><title>ico</title><path class="cls-1" d="M13.567,128.643l5.022,0.387a4.488,4.488,0,0,0,4.635-4.258l0.579-6.58a4.488,4.488,0,0,1,4.635-4.257l3.863,0.387"/><path class="cls-1" d="M150.7,149.931a14.321,14.321,0,1,0,14.293,14.321A14.275,14.275,0,0,0,150.7,149.931Z"/><path class="cls-1" d="M176.972,176.444c-8.691,18.385-17.576,36.577-26.267,54.768-8.5-18.385-17.962-36.383-26.267-54.768a46.645,46.645,0,0,1-2.318-12.579c0-16.256,12.554-28.255,28.585-28.255s28.778,12,28.778,28.255A46.927,46.927,0,0,1,176.972,176.444Z"/><path class="cls-1" d="M222.739,224.439H175.034"/><path class="cls-1" d="M125.207,224.439H108.79c-8.305,0-15.451,3.29-16.8,7.935L80.978,271.66c-1.545,5.612,6.374,10.837,16.8,10.837H277.21c10.429,0,18.347-5.032,16.8-10.837l-10.624-39.286c-1.158-4.645-8.3-7.935-16.8-7.935H222.744"/><path class="cls-1" d="M91.215,235.471L133.706,282.5"/><path class="cls-1" d="M183.727,282.5l-27.619-38.124"/><path class="cls-1" d="M252.1,282.5l-32.641-44.9"/><path class="cls-1" d="M238.193,263.532H191.839"/><path class="cls-1" d="M113.229,256.374l23.95-19.548"/><path class="cls-1" d="M194.156,244.373H156.108"/><path class="cls-1" d="M283.776,237.6H248.044"/><path class="cls-1" d="M287.446,251.146H263.3"/><path d="M219.651,114.516c-24.529,0-49.831-6.967-49.831-18.772V33.428c0-11.805,25.495-18.772,49.831-18.772,24.53,0,49.83,6.967,49.83,18.772V95.744C269.675,107.549,244.181,114.516,219.651,114.516Zm-46.74-18.772c0,8.515,21.439,15.676,46.74,15.676s46.74-7.161,46.74-15.676V82l-2.124,1.548c-8.3,6.193-25.687,10.257-44.809,10.257-18.928,0-36.5-4.064-44.809-10.257L172.525,82v13.74h0.386Zm0-20.9c0,8.515,21.439,15.676,46.74,15.676s46.74-7.16,46.74-15.676V61.1l-2.124,1.548c-8.3,6.193-25.687,10.257-44.809,10.257-18.928,0-36.5-4.064-44.809-10.257L172.525,61.1v13.74h0.386Zm0-20.708c0,8.515,21.439,15.676,46.74,15.676s46.74-7.161,46.74-15.676V40.4l-2.124,1.548c-8.3,6.193-25.687,10.257-44.809,10.257s-36.5-4.064-44.809-10.257L172.525,40.4v13.74h0.386Zm46.74-36.383c-25.3,0-46.74,7.161-46.74,15.676S194.35,49.1,219.651,49.1s46.74-7.161,46.74-15.676S245.145,17.753,219.651,17.753Z"/><path d="M219.651,14.849c24.336,0,49.637,6.967,49.637,18.579V95.744c0,11.612-25.3,18.579-49.637,18.579s-49.637-6.967-49.637-18.579V33.428C170.208,21.816,195.316,14.849,219.651,14.849Zm0,34.448c25.5,0,46.933-7.354,46.933-16.063s-21.437-16.063-46.933-16.063c-25.494.194-46.933,7.548-46.933,16.256S194.157,49.3,219.651,49.3Zm0,20.9c25.5,0,46.933-7.354,46.933-16.063V39.814l-2.511,1.935c-8.111,6.193-25.687,10.257-44.616,10.257s-36.31-4.064-44.615-10.257l-2.511-1.935V54.135C172.718,62.844,194.157,70.2,219.651,70.2Zm0,20.707c25.5,0,46.933-7.354,46.933-16.063V60.522l-2.511,1.935c-8.111,6.193-25.687,10.257-44.616,10.257s-36.31-4.064-44.615-10.257l-2.511-1.935V74.843C172.718,83.551,194.157,90.905,219.651,90.905Zm0,20.708c25.5,0,46.933-7.354,46.933-16.063V81.229l-2.511,1.935c-8.111,6.193-25.687,10.257-44.616,10.257s-36.31-4.064-44.615-10.257l-2.511-1.935V95.55C172.718,104.259,194.157,111.613,219.651,111.613Zm0-97.344c-24.529,0-50.023,7.161-50.216,18.966V95.55c0,12,25.495,19.159,50.216,19.159s50.217-7.161,50.217-19.159V33.428C269.675,21.429,244.374,14.268,219.651,14.268Zm0,34.641c-24.722,0-46.547-7.161-46.547-15.482s21.825-15.482,46.547-15.482S266.2,25.106,266.2,33.428,244.567,48.91,219.651,48.91Zm0,20.707c-24.722,0-46.547-7.161-46.547-15.482V40.782l1.738,1.355c8.305,6.386,25.881,10.451,44.808,10.451s36.7-4.064,44.809-10.451l1.737-1.355V54.135C266.2,62.457,244.567,69.617,219.651,69.617Zm0,20.708c-24.722,0-46.547-7.161-46.547-15.482V61.489l1.738,1.355c8.305,6.386,25.881,10.451,44.808,10.451s36.7-4.064,44.809-10.451l1.737-1.355V74.843C266.2,83.164,244.567,90.325,219.651,90.325Zm0,20.9c-24.722,0-46.547-7.16-46.547-15.482V82.39l1.738,1.355c8.305,6.387,25.881,10.451,44.808,10.451s36.7-4.064,44.809-10.451L266.2,82.39V95.744C266.2,103.872,244.567,111.226,219.651,111.226Z"/><path class="cls-1" d="M134.666,47.942H23.03"/><path class="cls-1" d="M23.03,71.359V47.942"/><path class="cls-1" d="M23.03,169.866v92.7"/><path class="cls-1" d="M45.049,262.563H23.03"/><path class="cls-1" d="M23.033,141.61A20.127,20.127,0,1,0,2.946,121.483,20.107,20.107,0,0,0,23.033,141.61Z"/><path class="cls-1" d="M145.683,269.337H122.119"/><path class="cls-1" d="M134.67,47.942V36.137l10.043,5.806,10.237,6-10.237,5.806L134.67,59.554V47.942Z"/><path class="cls-1" d="M45.829,262.565V250.76l10.043,6,10.043,5.807-10.043,5.8-10.043,5.805v-11.61Z"/><path class="cls-1" d="M23.035,71.359H34.624L28.829,81.422,23.035,91.486,17.241,81.422,11.447,71.359H23.035Z"/><path class="cls-1" d="M23.035,169.865H11.447l5.794-10.257,5.794-10.064,5.794,10.064,5.794,10.257H23.035Z"/><path class="cls-1" d="M236.649,158.834h11.4l-9.658-16.643-9.655-16.837-9.658,16.837-9.657,16.643H221v22.643H209.417l9.657,16.837,9.658,16.837,9.655-16.837,9.658-16.837h-11.4V158.834Z"/></svg>