<svg id="Layer_1" data-name="Layer 1" xmlns="http://www.w3.org/2000/svg" viewBox="0 0 300 300"><defs><style>.cls-1{fill:none;stroke:#000;stroke-linecap:round;stroke-linejoin:round;stroke-width:4px;}</style></defs><title>ico</title><path class="cls-1" d="M54.948,69.543A11.276,11.276,0,1,0,66.215,80.819,11.283,11.283,0,0,0,54.948,69.543Z"/><path class="cls-1" d="M75.82,90.6c-6.958,14.592-13.917,29.185-21.041,43.611C47.986,119.621,40.365,105.195,33.737,90.6a40.445,40.445,0,0,1-1.822-10.115A22.531,22.531,0,0,1,54.779,57.936c12.757,0,22.864,9.618,22.864,22.552A29.56,29.56,0,0,1,75.82,90.6Z"/><path class="cls-1" d="M157.5,156.433V84.466a8.135,8.135,0,0,1,8.118-8.125h14.911a8.135,8.135,0,0,1,8.118,8.125v71.967"/><path class="cls-1" d="M205.717,156.434V117.465a8.135,8.135,0,0,1,8.12-8.125h14.91a8.135,8.135,0,0,1,8.118,8.125v38.968"/><path class="cls-1" d="M253.1,156.433V138.027a8.135,8.135,0,0,1,8.12-8.125h14.911a8.134,8.134,0,0,1,8.118,8.125V156.6"/><path class="cls-1" d="M298,281.463H148.888a8.134,8.134,0,0,1-8.118-8.125V196.231"/><path class="cls-1" d="M298,157.595H148.888a8.135,8.135,0,0,1-8.118-8.125V72.2"/><path class="cls-1" d="M140.77,250.954l17.894-15.422a8.113,8.113,0,0,1,11.432.829l11.763,13.929a7.969,7.969,0,0,0,11.433.829l35.123-30.014a8.115,8.115,0,0,1,11.433.829l11.763,13.929a7.966,7.966,0,0,0,11.431.829l30.155-25.7"/><path class="cls-1" d="M58.925,281.8a42.948,42.948,0,1,0-42.911-42.947A42.929,42.929,0,0,0,58.925,281.8Z"/><path class="cls-1" d="M58.921,195.9v42.949"/><path class="cls-1" d="M58.921,238.848L89.075,269.36"/><path class="cls-1" d="M58.8,238.327L27.288,267.669"/><path class="cls-1" d="M35.891,108.843H19.986a7.625,7.625,0,0,0-7.456,6.3l-4.639,31.34a7.543,7.543,0,0,0,7.456,8.623H94.376a7.543,7.543,0,0,0,7.456-8.623L97.193,115.31a7.372,7.372,0,0,0-7.456-6.3H75.655"/><path class="cls-1" d="M15.183,110.832l34.793,44.275"/><path class="cls-1" d="M89.738,155.107L67.7,124.762"/><path class="cls-1" d="M100.67,139.852H78.8"/><path class="cls-1" d="M33.57,134.214l9.941-8.125"/><path class="cls-1" d="M98.022,124.762H67.7"/></svg>