<svg id="Layer_1" data-name="Layer 1" xmlns="http://www.w3.org/2000/svg" viewBox="0 0 300 300"><defs><style>.cls-1{fill:none;stroke:#000;stroke-linecap:round;stroke-linejoin:round;stroke-width:4px;}</style></defs><title>ico</title><path d="M244.015,230.39c-3.856-5.939-9.074-8.68-15.88-8.223h-0.454c-4.991,1.6-10.435,3.2-16.107,5.025-24.954,7.994-50.589,15.989-76.451,15.989-29.945,0-47.867-6.167-62.386-12.563q-4.083-1.713-7.486-3.426c-10.662-5.025-19.736-9.365-31.76-9.365H33.265c-7.486.914-14.973,2.056-22.459,3.2l-5.445.914A1.524,1.524,0,0,0,4,223.537a1.741,1.741,0,0,0,2.042,1.827c2.949-.457,6.125-0.914,9.074-1.37h0.227c6.125-.914,12.25-1.827,18.149-2.512h0.227c11.116,0.228,19.51,4.111,29.945,8.908l7.486,3.426c12.7,5.71,29.038,11.649,54.672,12.791h0.227c7.94,1.828,14.065,5.255,16.788,9.823a12.391,12.391,0,0,1,1.361,9.821l-0.227.457c-1.815,2.283-5.9,5.71-14.065,5.71h-0.227l-68.284-7.765a1.717,1.717,0,0,0-.227,3.427l68.511,7.765h0.227c6.806-.23,12.7-2.513,16.334-6.624,0-.23.227-0.23,0.227-0.457,4.991-8.909-1.361-15.76-5.445-19.187l-3.176-2.74,4.537-.23c24.5-1.371,49-9.136,70.552-15.988,5.445-1.827,10.662-3.426,15.88-5.025h0.454c5.9,0.228,9.755,2.284,12.023,6.624,2.5,3.883,2.042,7.994-1.134,11.42l-0.227.229-3.176,2.056c-22.912,14.389-76.451,48.194-129.309,48.422H107.22c-14.746-2.056-29.038-6.167-42.649-10.278-7.033-2.056-13.611-4.111-19.964-5.71-14.292-3.427-26.315-3.884-39.246-1.6A1.987,1.987,0,0,0,4,278.583v1.828a79.244,79.244,0,0,1,16.334-1.6,96.329,96.329,0,0,1,23.366,3.2c8.621,2.056,16.787,4.568,24.727,7.081,13.838,4.341,26.769,8.222,38.339,8.909,54.446,0,108.211-34.035,131.123-48.651l0.227-.23c1.361-.914,2.5-1.6,3.63-2.283,0.227,0,.227-0.23.454-0.23A14.117,14.117,0,0,0,244.015,230.39Z"/><path class="cls-1" d="M131.835,208.194c55.143,0,99.845-44.93,99.845-100.353S186.978,7.488,131.835,7.488,31.99,52.417,31.99,107.841,76.692,208.194,131.835,208.194Z"/><path class="cls-1" d="M131.839,7.487V208.193"/><path class="cls-1" d="M131.833,207.258c27.893,0,50.5-44.72,50.5-99.885s-22.612-99.885-50.5-99.885-50.5,44.72-50.5,99.885S103.941,207.258,131.833,207.258Z"/><path class="cls-1" d="M42.579,64.815H222.106"/><path class="cls-1" d="M41.3,150.18H222.143"/><path class="cls-1" d="M31.99,107.841H231.68"/></svg>