<svg width="136" height="28" viewBox="0 0 136 28" fill="none" xmlns="http://www.w3.org/2000/svg">
<path d="M27.7648 28H13.8833V26.4771H26.2547V9.77116C24.9151 13.6114 22.7269 17.094 19.8557 19.9554C17.3437 22.4745 14.3635 24.469 11.0859 25.8246C7.80824 27.1802 4.29758 27.8703 0.755042 27.8553H0V0H20.4465V1.52288H1.51008V26.321C8.0031 26.1576 14.1875 23.4928 18.793 18.8742C21.168 16.5067 23.0512 13.6855 24.3324 10.5755C25.6136 7.46553 26.2671 4.12913 26.2547 0.761439H27.7648V28Z" fill="black"/>
<path d="M48.6243 17.6137V16.8523C47.958 18.0287 46.5782 19.1366 44.415 19.1366C41.0173 19.1366 38.8711 16.6905 38.8711 13.3401C38.8711 9.80896 41.2419 7.47705 44.4376 7.47705C46.6235 7.47705 47.8882 8.2994 48.6243 9.38065H48.9452L49.2661 7.78924H50.4968V17.3225C50.4968 21.3067 48.7036 23.9546 44.5849 23.9546C41.6874 23.9546 39.8243 22.051 39.2732 20.0617H41.2268C41.5949 21.1468 42.5161 22.4393 44.7472 22.4393C47.405 22.4374 48.6243 20.5795 48.6243 17.6137ZM48.6243 13.2354C48.6243 10.7208 47.152 9.00183 44.7831 9.00183C42.4141 9.00183 40.9418 10.776 40.9418 13.3116C40.9418 15.7577 42.3216 17.6137 44.7831 17.6137C46.9217 17.6137 48.6243 16.0299 48.6243 13.2449V13.2354Z" fill="black"/>
<path d="M53.5274 14.0372C53.6879 16.8678 55.2263 18.4516 57.7141 18.4516C59.53 18.4516 60.6343 17.456 61.21 16.3006H63.141C62.4067 18.4059 60.404 19.9688 57.667 19.9688C53.8729 19.9688 51.6172 17.3647 51.6172 13.765C51.6172 10.0301 54.0333 7.47168 57.6896 7.47168C61.6706 7.47168 63.4241 10.4698 63.4241 13.6298C63.4241 13.8792 63.4015 13.9687 63.4015 14.0372H53.5274ZM61.4176 12.6342C61.159 10.4832 60.0359 8.94697 57.6443 8.94697C55.3433 8.94697 53.9182 10.4413 53.6199 12.638L61.4176 12.6342Z" fill="black"/>
<path d="M64.5684 13.744C64.5684 10.1272 66.9147 7.47168 70.6861 7.47168C74.4575 7.47168 76.8057 10.1196 76.8057 13.7535C76.8057 17.3875 74.482 19.9783 70.6408 19.9783C66.7995 19.9783 64.5684 17.3647 64.5684 13.744ZM74.735 13.7193C74.735 10.98 73.24 8.98885 70.6408 8.98885C68.0415 8.98885 66.5239 10.98 66.5239 13.7193C66.5239 16.5499 67.9962 18.4516 70.6408 18.4516C73.2853 18.4516 74.735 16.5499 74.735 13.7193V13.7193Z" fill="black"/>
<path d="M78.0957 19.6737V3.49316H88.0339V5.16833H80.0513V10.527H87.4809V12.204H80.0513V19.6737H78.0957Z" fill="black"/>
<path d="M89.3906 3.4873H91.3009V19.6679H89.3906V3.4873Z" fill="black"/>
<path d="M102.941 17.8634C102.941 18.4744 102.941 19.0626 102.963 19.6737H101.761L101.421 18.3279H101.1C100.549 19.3025 99.3524 19.9935 97.2817 19.9935C94.4994 19.9935 93.1875 18.227 93.1875 15.2174V7.79336H95.0978V14.6577C95.0978 17.0125 95.9717 18.484 98.0179 18.484C99.9734 18.484 101.038 16.8545 101.038 14.9528V7.78955H102.946L102.941 17.8634Z" fill="black"/>
<path d="M103.887 19.6737C104.508 18.859 106.969 15.5543 108.302 13.6298L104.092 7.78955H106.324C106.762 8.46723 108.324 10.7554 109.383 12.2268C110.395 10.7554 111.499 9.16966 112.421 7.78955H114.497C113.347 9.39619 111.554 11.7871 110.38 13.4261C111.599 15.1698 113.555 17.9757 114.842 19.6737H112.581C111.66 18.3412 110.28 16.3234 109.291 14.8062C108.372 16.1882 106.692 18.6134 105.98 19.6737H103.887Z" fill="black"/>
<path d="M128.156 16.0737C128.594 17.6137 129.513 18.4741 131.353 18.4741C133.011 18.4741 134.138 17.6822 134.138 16.5039C134.138 15.3256 133.148 14.981 131.584 14.5584L130.159 14.1777C128.226 13.6352 126.731 12.9784 126.731 10.9188C126.731 8.79053 128.594 7.47705 131.216 7.47705C133.669 7.47705 135.402 8.49548 135.77 10.9188H133.975C133.632 9.73472 132.758 8.94663 131.17 8.94663C129.513 8.94663 128.639 9.69474 128.639 10.6599C128.639 11.724 129.49 12.1542 131.055 12.5844L132.565 13.0146C134.659 13.6257 135.993 14.3719 135.993 16.2736C135.993 18.6055 134.06 19.9418 131.301 19.9418C128.631 19.9418 126.816 18.7996 126.285 16.0699L128.156 16.0737Z" fill="black"/>
<path d="M125.326 17.8634C125.326 18.4744 125.326 19.0626 125.348 19.6737H124.144L123.806 18.3279H123.485C122.932 19.3025 121.737 19.9935 119.666 19.9935C116.882 19.9935 115.572 18.227 115.572 15.2174V7.79336H117.481V14.6577C117.481 17.0125 118.355 18.484 120.403 18.484C122.358 18.484 123.423 16.8545 123.423 14.9528V7.78955H125.333L125.326 17.8634Z" fill="black"/>
</svg>
