<svg id="Layer_1" data-name="Layer 1" xmlns="http://www.w3.org/2000/svg" viewBox="0 0 113.414 150"><defs><style>.cls-1{fill:#070606;}</style></defs><title>logo</title><path class="cls-1" d="M113.4,113.4h-56.7v-2.425H110.98V24.55a110.362,110.362,0,0,1-6.385,20.257A110.6,110.6,0,0,1,80.563,80.254a111.438,111.438,0,0,1-35.657,23.818,112.6,112.6,0,0,1-43.684,8.712H0.01V0H84.45V2.425H2.434V110.353a110.092,110.092,0,0,0,41.536-8.518,109.021,109.021,0,0,0,34.885-23.3,108.183,108.183,0,0,0,23.508-34.674A108.542,108.542,0,0,0,110.98,1.212H113.4V113.4Z"/><path class="cls-1" d="M11.388,142.66v-0.891a5.44,5.44,0,0,1-4.915,2.647C2.5,144.416,0,141.585,0,137.706c0-4.089,2.766-6.789,6.5-6.789,2.552,0,4.029.952,4.888,2.211l0.374,0,0.365-1.842h1.437V142.32c0,4.614-2.095,7.68-6.9,7.68a6.26,6.26,0,0,1-6.2-4.509H2.739a3.958,3.958,0,0,0,4.11,2.753C9.964,148.244,11.388,146.094,11.388,142.66Zm0-5.06c0-2.91-1.719-4.9-4.485-4.9-2.793,0-4.485,2.045-4.485,4.98,0,2.831,1.612,4.981,4.485,4.981C9.4,142.66,11.388,140.825,11.388,137.6Z"/><path class="cls-1" d="M17.111,138.519C17.3,141.8,19.1,143.63,22,143.63a4.351,4.351,0,0,0,4.083-2.49h2.256a6.514,6.514,0,0,1-6.393,4.247c-4.432,0-7.064-3.015-7.064-7.183,0-4.326,2.82-7.287,7.091-7.287,4.647,0,6.688,3.46,6.688,7.13,0,0.289-.027.394-0.027,0.472H17.111Zm9.213-1.626c-0.3-2.49-1.612-4.273-4.4-4.273a4.542,4.542,0,0,0-4.7,4.273h9.105Z"/><path class="cls-1" d="M30.006,138.178c0-4.195,2.74-7.261,7.145-7.261s7.144,3.067,7.144,7.261-2.713,7.209-7.2,7.209C32.584,145.386,30.006,142.372,30.006,138.178Zm11.872-.027c0-3.172-1.746-5.479-4.781-5.479-3.062,0-4.808,2.307-4.808,5.479,0,3.277,1.719,5.479,4.808,5.479S41.878,141.428,41.878,138.151Z"/><path class="cls-1" d="M45.8,145.046V126.3H57.4v1.94h-9.32v6.212H56.76v1.94H48.084v8.65H45.8Z"/><path class="cls-1" d="M58.991,126.3h2.229v18.743H58.991V126.3Z"/><path class="cls-1" d="M74.812,142.948c0,0.708,0,1.39.027,2.1H73.434l-0.4-1.559-0.374,0c-0.645,1.127-2.041,1.927-4.459,1.927-3.25,0-4.781-2.045-4.781-5.531v-8.6h2.229v7.943c0,2.726,1.021,4.43,3.411,4.43,2.283,0,3.518-1.887,3.518-4.09v-8.284h2.229v11.665Z"/><path class="cls-1" d="M75.915,145.046c0.725-.943,3.6-4.771,5.157-7l-4.915-6.763h2.606c0.51,0.786,2.336,3.434,3.572,5.138,1.182-1.7,2.471-3.539,3.545-5.138H88.3c-1.343,1.861-3.438,4.64-4.808,6.527,1.424,2.018,3.707,5.269,5.211,7.235H86.068c-1.074-1.547-2.686-3.88-3.841-5.636-1.074,1.6-3.035,4.4-3.868,5.636H75.915Z"/><path class="cls-1" d="M104.255,140.878a3.446,3.446,0,0,0,3.733,2.779c1.934,0,3.25-.918,3.25-2.281s-1.155-1.757-2.981-2.254l-1.665-.446c-2.256-.629-4-1.389-4-3.775,0-2.464,2.176-3.984,5.238-3.984,2.874,0,4.888,1.179,5.318,3.984h-2.095a3.081,3.081,0,0,0-3.277-2.28c-1.934,0-2.954.865-2.954,1.992,0,1.232.994,1.73,2.82,2.228l1.773,0.5c2.444,0.708,4,1.573,4,3.775,0,2.7-2.256,4.247-5.479,4.247-3.116,0-5.237-1.311-5.855-4.483h2.176Z"/><path class="cls-1" d="M100.949,142.948c0,0.708,0,1.39.027,2.1H99.571l-0.4-1.559-0.374,0c-0.645,1.127-2.041,1.927-4.459,1.927-3.25,0-4.781-2.045-4.781-5.531v-8.6H91.79v7.943c0,2.726,1.021,4.43,3.411,4.43,2.283,0,3.518-1.887,3.518-4.09v-8.284h2.229v11.665Z"/></svg>